<?xml version="1.0" standalone="no"?>
<!DOCTYPE svg PUBLIC "-//W3C//DTD SVG 20010904//EN"
 "http://www.w3.org/TR/2001/REC-SVG-20010904/DTD/svg10.dtd">
<svg version="1.0" xmlns="http://www.w3.org/2000/svg"
 width="626.000000pt" height="626.000000pt" viewBox="0 0 626.000000 626.000000"
 preserveAspectRatio="xMidYMid meet">

<g transform="translate(0.000000,626.000000) scale(0.100000,-0.100000)"
fill="#000000" stroke="none">
<path d="M725 5440 c-86 -22 -147 -70 -181 -145 l-24 -50 0 -2115 0 -2115 24
-51 c29 -63 95 -120 160 -139 75 -23 3337 -22 3413 0 70 21 123 63 158 126
l30 54 3 528 3 528 578 882 c318 485 635 970 705 1077 71 107 132 205 137 218
15 38 10 131 -8 169 -9 20 -30 49 -47 64 -56 52 -380 257 -424 269 -69 18
-141 -1 -196 -53 -27 -26 -177 -246 -393 -575 l-348 -534 -5 839 -5 838 -30
54 c-16 30 -48 67 -69 83 -85 61 18 58 -1795 57 -911 -1 -1669 -5 -1686 -9z
m3382 -160 c17 -10 38 -29 45 -42 10 -18 14 -210 16 -949 l4 -925 -154 -237
c-95 -147 -158 -234 -166 -232 -7 3 -11 1 -7 -4 6 -10 -43 -91 -177 -297 l-85
-130 -77 -448 c-57 -336 -74 -452 -66 -466 12 -22 41 -40 66 -40 9 0 160 94
336 210 176 115 321 210 324 210 2 0 4 -194 4 -431 0 -469 -1 -474 -58 -519
-24 -20 -48 -20 -1698 -20 l-1674 0 -38 34 -37 34 0 2102 0 2102 37 34 38 34
1667 0 c1634 0 1669 0 1700 -20z m1146 -672 l42 -22 -30 -6 c-56 -12 -75 -31
-162 -165 l-88 -134 -33 20 c-19 13 -29 26 -25 32 97 159 178 270 206 282 42
18 41 19 90 -7z m90 -749 c-14 -21 -29 -39 -34 -39 -4 0 -95 57 -201 126 -106
70 -197 128 -203 130 -6 3 -66 -80 -134 -183 -67 -104 -255 -390 -417 -638
-163 -247 -348 -530 -412 -627 -64 -98 -121 -178 -126 -178 -6 0 -23 10 -39
23 l-27 22 249 380 c137 209 339 516 448 683 109 166 251 383 316 482 l118
179 244 -160 244 -161 -26 -39z m-1433 -1670 c117 -77 209 -144 204 -149 -14
-13 -423 -280 -430 -280 -3 0 -26 -14 -50 -31 -25 -17 -48 -29 -51 -26 -7 7
99 627 107 627 4 0 103 -63 220 -141z"/>
<path d="M1369 4242 c-27 -23 -30 -75 -5 -100 15 -16 100 -17 1174 -20 l1157
-2 18 21 c23 28 22 74 -3 99 -20 20 -33 20 -1169 20 -1102 0 -1150 -1 -1172
-18z"/>
<path d="M3748 4095 l4 -35 -1121 0 c-1103 0 -1121 0 -1153 20 l-33 20 1124 0
c618 0 1126 2 1129 5 3 3 -508 5 -1136 5 l-1141 0 4 -27 c2 -16 4 -31 4 -34 1
-10 61 -33 67 -26 3 3 -11 15 -33 26 -21 11 -34 20 -30 21 4 0 25 -9 47 -20
39 -20 59 -20 1163 -20 860 0 1126 3 1135 12 18 18 15 59 -5 74 -27 20 -29 17
-25 -21z"/>
<path d="M1436 3639 c-33 -26 -34 -62 -1 -94 l24 -25 1153 0 c634 0 1158 4
1165 8 6 4 14 24 18 44 6 31 3 41 -19 62 l-25 26 -1144 0 c-1143 0 -1144 0
-1171 -21z"/>
<path d="M3788 3529 c-18 -19 -47 -19 -1158 -19 -796 0 -1140 -3 -1140 -11 0
-5 5 -7 11 -3 8 5 10 -1 7 -20 -4 -19 0 -29 13 -36 11 -6 445 -9 1171 -8
l1153 3 -1135 5 -1135 5 1137 3 c675 1 1139 6 1142 11 4 5 2 21 -4 36 -7 17
-7 24 0 20 14 -9 12 9 -2 23 -17 17 -40 14 -60 -9z m-2230 -76 c-10 -2 -26 -2
-35 0 -10 3 -2 5 17 5 19 0 27 -2 18 -5z"/>
<path d="M1430 3000 c-25 -25 -26 -61 -1 -91 l19 -24 1156 -3 c957 -2 1157 0
1167 11 7 7 22 13 33 12 14 -2 15 -1 4 2 -13 3 -16 11 -12 31 4 19 -1 36 -16
55 l-21 27 -1155 0 c-1141 0 -1154 0 -1174 -20z"/>
<path d="M3778 2875 c-2 -3 -519 -5 -1149 -5 -629 0 -1139 -4 -1133 -8 6 -4
13 -15 17 -24 3 -10 14 -18 24 -18 10 0 31 -7 46 -15 25 -13 174 -15 1109 -15
1073 0 1081 0 1095 20 8 11 11 20 6 20 -4 0 0 5 10 11 23 13 22 39 -1 39 -10
0 -21 -2 -24 -5z m-2183 -25 c4 -6 10 -8 15 -5 5 3 11 1 15 -4 3 -6 391 -10
1027 -11 562 0 1024 -3 1027 -5 5 -6 -2096 0 -2116 5 -7 2 -13 9 -13 17 0 15
36 18 45 3z m2165 -18 c0 -4 -16 -6 -35 -4 -19 2 -35 6 -35 8 0 2 16 4 35 4
19 0 35 -4 35 -8z"/>
<path d="M1520 2800 c8 -5 29 -9 45 -9 26 0 27 2 10 9 -11 5 -31 9 -45 9 -20
1 -22 -1 -10 -9z"/>
</g>
</svg>
